<?xml version="1.0" encoding="UTF-8"?>
<svg width="32" height="32" viewBox="0 0 32 32" fill="none" xmlns="http://www.w3.org/2000/svg">
  <!-- 背景圆形 -->
  <circle cx="16" cy="16" r="16" fill="#1A1A2E"/>
  
  <!-- 头部 - 更亮的灰色 -->
  <path d="M16 6C12 6 9 9 9 13V22H23V13C23 9 20 6 16 6Z" fill="#E0E0E0"/>
  
  <!-- 墨镜/面罩 - 深色但带有光泽 -->
  <path d="M10 14H22V18H10V14Z" fill="#2D2D44" stroke="#4A4A6A" stroke-width="0.5"/>
  
  <!-- 耳机 - 更鲜艳的粉色 -->
  <path d="M7 15C6 15 5 16 5 17V19C5 20 6 21 7 21H9V15H7Z" fill="#FF2D92"/>
  <path d="M25 15C26 15 27 16 27 17V19C27 20 26 21 25 21H23V15H25Z" fill="#FF2D92"/>
  
  <!-- 嘴部 - 更深的粉色 -->
  <path d="M14 20H18V21H14V20Z" fill="#FF1493"/>
  
  <!-- 装饰线条 - 更亮的青色 -->
  <rect x="12" y="15" width="3" height="2" fill="#00FFFF"/>
  <rect x="17" y="15" width="3" height="2" fill="#00FFFF"/>
  
  <!-- 发光效果增强 -->
  <circle cx="13.5" cy="16" r="0.5" fill="white"/>
  <circle cx="18.5" cy="16" r="0.5" fill="white"/>
  
  <!-- 装饰元素 - 更明显的线条 -->
  <path d="M11 12L13 11M19 11L21 12" stroke="#00FFFF" stroke-width="1" opacity="0.8"/>
  
  <!-- 添加高光效果 -->
  <path d="M16 7C13 7 10 9 10 13" stroke="white" stroke-width="0.5" opacity="0.3"/>
  
  <!-- 添加反光效果 -->
  <circle cx="20" cy="9" r="0.8" fill="white" opacity="0.5"/>
  <circle cx="21" cy="10" r="0.4" fill="white" opacity="0.3"/>
</svg>